<?xml version="1.0" encoding="UTF-8"?>
<svg id="Layer_1" xmlns="http://www.w3.org/2000/svg" version="1.1" viewBox="0 0 811.3 338">
  <!-- Generator: Adobe Illustrator 30.2.1, SVG Export Plug-In . SVG Version: 2.1.1 Build 1)  -->
  <defs>
    <style>
      .st0 {
        fill: #231f20;
      }
    </style>
  </defs>
  <path class="st0" d="M28.6,199l-10.4-30.1-2,28.6c2.1.6,4.6,1.4,6,2.1v5.4H2.6v-5.4c1.2-.7,3.4-1.5,5.4-2.1l2.6-34.4c-2-.6-4.2-1.4-5.4-2.1v-5.4h22.1l9.8,29.8,9.5-29.8h21.8v5.4c-1.2.7-3.4,1.5-5.4,2.1l2.6,34.4c2,.6,4.2,1.4,5.4,2.1v5.4h-24.5v-5.4c1.4-.7,3.9-1.5,6-2.1l-2.3-28.9-8.8,27.2-4.3,3.2h-8.6ZM82.1,162.5h16.8c2-.4,3.2-1,4.4-1.8v-5.9h-16.8c-2,.4-3.2,1-4.4,1.8v5.9ZM122,163.1c1.6.3,3.6.7,5.1.8,2.5,0,5.4-.4,7.8-.8.2-1.1.3-2.7.3-4.7s-.2-3.5-.3-4.6c-1.6-.3-3.6-.7-5.1-.8-2.5,0-5.4.4-7.8.8-.2,1.1-.3,2.6-.3,4.6s.2,3.6.3,4.7M118.4,205h21.3v-5.4c-1.1-.7-2.9-1.5-4.7-2v-22.3c.2-3,.2-4.1.2-6.3-1.3-.3-3.7-.7-5.2-.8-4.2.3-9.3,2-11.5,3v4.9c1.2.7,3.5,1.6,4.8,2v19.5c-1.9.5-3.8,1.4-5,2v5.4ZM97.1,189.6c-3.2-.4-7.1-.3-9.5.5-.3.7-.6,2-.6,3.2,0,3.1,1.8,5,5.6,5s3.7-1,4.5-2v-6.8ZM113.3,201.5c-1.8,2.3-4.7,4.4-7.5,4.4s-5.3-.4-6.8-5.7c-1.8,3-5.4,6.1-11.3,6.1-8.4,0-12.8-4.6-12.8-11,0-9.7,9.1-11.7,22.5-11.2v-2.5c0-4.6-1.1-7.6-5.6-7.6s-2.5.2-3,.4c-.8,2.2-1.7,4.3-2.8,6.8-3.8-.6-7.2-1.5-8.9-2.2-.2-1.7-.4-5.4,0-7.3,2.9-1.7,8.5-3.4,16.8-3.4s15.2,3.5,15.2,13.5-.4,9-.4,13.1c1.1.3,3.6,1.1,4.7,1.5v5.3ZM166,196.4c-.8,1-2.4,2-4.5,2-3.8,0-5.6-2-5.6-5s.3-2.6.6-3.2c2.4-.8,6.3-.9,9.5-.5v6.8ZM182.2,196.2c-1-.4-3.5-1.2-4.7-1.5,0-4.1.4-10.5.4-13.1,0-10-4.7-13.5-15.2-13.5s-13.9,1.7-16.8,3.4c-.3,1.9-.1,5.6,0,7.3,1.7.7,5.1,1.6,8.9,2.2,1.1-2.5,2-4.6,2.8-6.8.5-.2,2-.4,3-.4,4.4,0,5.6,3,5.6,7.6v2.5c-13.5-.5-22.5,1.5-22.5,11.2s4.4,11,12.8,11,9.5-3.1,11.4-6.1c1.4,5.3,4.7,5.7,6.8,5.7s5.7-2,7.5-4.4v-5.3ZM16.6,241.7h25.4v-17.5c-2.3-.4-5.1-.9-6.9-1.5v-2.7h20.4c0,2.7-1,3.3-6.8,4.3v40.9c5.7,1,6.8,1.6,6.8,4.3h-20.4v-2.7c1.8-.6,4.7-1.1,6.9-1.5v-19.3h-25.4v19.3c2.3.4,5.1.9,6.9,1.5v2.7H3.1c0-2.7,1-3.3,6.8-4.3v-40.9c-5.7-1-6.8-1.6-6.8-4.3h20.4v2.7c-1.8.6-4.7,1.1-6.9,1.5v17.5ZM142.2,215.7c-.7-.4-2-.9-3.8-.9-2.6,0-6.8,1.4-8.8,2.4v2c1.3.7,3.7,1.4,6.1,1.8v44.3c-5.1,1-6.2,1.6-6.2,4.2h18.6v-2.7c-1.5-.5-4.2-1.1-6-1.4v-49.7ZM162.7,238.6c0,7.5-.2,16.5-.2,20.1s2,6.5,5.8,6.5,5.5-1.4,7-2.3c.4.2,1.6,2,1.7,2.6-1.4,2-5.9,4.7-10.6,4.7-6.9,0-10.4-3.8-10.4-10.7s.1-15.3.1-20.9c-1.3-.1-3.5-.5-5.3-1.1v-2.7c1.2-.2,3.4-.3,5.3-.4.8-8,2.6-8.4,6.7-8.4,0,0-.2,3.6-.2,8.4h14.1v2.6c-.9,1.2-2.2,1.6-6.2,1.6h-7.9ZM215.9,246.5c0-7-3.8-13-12-13s-8.9,2.9-11.1,6.1v-23.9c-.7-.4-2-.9-3.8-.9-2.6,0-6.8,1.4-8.8,2.4v2c1.3.7,3.7,1.4,6.1,1.8v44.3c-5.1,1-6.2,1.6-6.2,4.2h18.6v-2.7c-1.6-.5-3.8-1.1-6-1.4v-21.3c1.4-2.7,4.3-5.6,8.4-5.6s8.3,3.3,8.3,9.9v16.9c-5.1,1-6.2,1.6-6.2,4.2h18.6v-2.7c-1.6-.5-3.8-1.1-6-1.4v-18.8ZM82.1,247h-16.8c.5-4.8,2.9-9.6,8.6-9.6s8.1,4.1,8.1,9.6M88.3,246.3c0-6.7-3.8-12.8-13.5-12.8s-16.7,7-16.7,19.4,5.7,17.4,16.4,17.4,10.7-3.2,13.1-6.4c0-.5-1.4-1.9-1.9-2.3-2.6,2.2-5.1,3.6-8.9,3.6-8.5,0-12.1-7.4-11.8-14.4h23.1c.2-1.6.2-2.8.2-4.5M100.8,259.8c0,3.8,2.9,5.6,6.8,5.6s5.7-1.6,6.8-3.6v-7.6c-8-.5-13.5.2-13.5,5.6M126.3,267.1c-1.4,1.9-3.5,3.1-5.6,3.1s-4.4-1.8-5.5-5.3c-2.1,3.3-5.2,5.3-10,5.3-7.3,0-11.2-4.4-11.2-9.6s6.3-10.5,16.5-10.5,2.9,0,4.2.2c0,0,0-2.6,0-3.8,0-5.9-2.6-9.2-7-9.2s-6.6,4.4-8.5,6.8c-4.2-.7-5.5-4.8-2-7.4,2.8-2.1,6.5-3.2,12-3.2,7.9,0,11.8,4,11.8,12.2s-.4,11.6-.5,17.4c1.9.5,4.4,1.3,5.7,1.7v2.3ZM274.7,288c0,2.3,1.9,4.2,4.2,4.2s4.2-1.9,4.2-4.2-1.9-4.2-4.2-4.2-4.2,1.9-4.2,4.2M32.2,305.5v2.3c-.5.9-1.4,2.1-4,2.1h-11.7v19.8c2.8.4,5.6.9,7.7,1.5v2.7H3.1c0-2.7,1-3.3,6.8-4.3v-40.8c-5.6-1-6.5-1.6-6.5-4.4h34.8c.4,1,.5,2.3.5,3.4,0,2.6-1,6.2-1.7,8.1h-2.3c-1.1-2.5-1.8-4.6-2.4-7.4h-15.6v17.1h15.6ZM109.7,298.9c-.7-.4-1.7-.9-3.4-.9-3.4,0-7.1,1.4-9.1,2.4v2c1.3.7,3.5,1.4,6,1.8l-.2,20.1c-1.9,3.5-4.8,5.5-8.4,5.5s-7.6-3.3-7.6-9.2c0-11.4.2-17.6.2-21.6-.7-.4-1.7-.9-3.4-.9-2.6,0-6.5,1.4-8.4,2.4v2c1.3.7,3.5,1.4,5.3,1.7,0,3.4-.2,13.3-.2,17.5,0,8.5,4.3,13.1,11.7,13.1s10-4.1,11.7-6.5c1.4,4.1,2.7,6.3,3.8,6.3,2.1,0,5-1.7,6.5-3.6v-2.5c-1-.5-2.8-1.1-4.8-1.8.2-6.2,0-14.7.2-27.7M155.1,310.9c0-7.1-3.9-13-12.1-13s-8.9,2.8-11.1,6.2v-5.2c-.7-.4-1.7-.9-3.3-.9-2.7,0-6.5,1.4-8.5,2.4v2c1.3.7,3.5,1.4,5.4,1.7v25.6c-5.1,1-6.2,1.6-6.2,4.2h18.6v-2.7c-1.6-.5-3.8-1.1-6-1.4v-21.4c1.4-2.7,4.1-5.6,8.4-5.6s8.3,3.3,8.3,9.9v16.9c-5.1,1-6.2,1.6-6.2,4.2h18.6v-2.7c-1.6-.5-3.8-1.1-6-1.4v-18.8ZM259,303c4,0,5.3-.4,6.2-1.6v-2.6h-14.1c0-4.8.2-8.4.2-8.4-4.1,0-5.9.4-6.7,8.4-2,0-4.1.2-5.3.4v2.7c1.9.6,4.1,1,5.3,1.1,0,5.6-.2,15.3-.2,20.9s3.5,10.7,10.4,10.7,9.2-2.8,10.6-4.7c-.2-.5-1.4-2.3-1.7-2.6-1.5.9-4.2,2.3-7,2.3s-5.8-2.5-5.8-6.5,0-12.6.1-20.1h7.9ZM282.3,298.9c-.7-.4-1.8-.9-3.4-.9-2.7,0-6.5,1.4-8.5,2.4v2c1.3.7,3.5,1.4,5.4,1.7v25.6c-5.2,1-6.2,1.6-6.2,4.2h18.6v-2.7c-1.6-.5-3.8-1.1-5.9-1.4v-30.8ZM363.4,329.7c2.2.4,4.4.9,6,1.4v2.7h-18.6c0-2.6,1.1-3.2,6.2-4.2v-16.9c0-6.6-3.1-9.9-8.3-9.9s-7.1,2.9-8.4,5.6v21.4c2.2.4,4.4.9,6,1.4v2.7h-18.6c0-2.6,1.1-3.2,6.2-4.2v-25.6c-1.9-.4-4.1-1.1-5.4-1.7v-2c2-1,5.8-2.4,8.5-2.4s2.6.5,3.3.9v5.2c2.2-3.4,5.5-6.2,11.1-6.2,8.2,0,12.1,5.9,12.1,13v18.8ZM213.2,324.2c0,3.8,2.9,5.6,6.8,5.6s5.7-1.6,6.8-3.6v-7.6c-8-.5-13.5.2-13.5,5.6M238.7,331.5c-1.4,1.9-3.5,3.1-5.6,3.1s-4.4-1.8-5.5-5.3c-2.1,3.3-5.2,5.3-10,5.3-7.3,0-11.2-4.4-11.2-9.6s6.3-10.4,16.5-10.4,2.9,0,4.2.1c0,0,0-2.6,0-3.8,0-5.9-2.6-9.2-7-9.2s-6.6,4.4-8.5,6.8c-4.2-.7-5.5-4.8-2-7.4,2.8-2.1,6.5-3.2,12-3.2,7.9,0,11.8,4,11.8,12.2s-.4,11.6-.5,17.4c1.9.5,4.4,1.3,5.7,1.7v2.3ZM189.9,326.1c-1.5,2-4.3,3.5-7.1,3.5-7.7,0-11.9-6-11.9-13.6s4.1-13.9,11.8-13.9,5.9.9,7.2,1.7v22.2ZM201.6,328.4c-1.5-.7-3.4-1.3-5.3-1.9v-46.4c-.6-.4-2-.9-3.7-.9-2.9,0-7,1.4-9,2.4v2c1.4.7,3.8,1.4,6.3,1.8v13.3c-1.7-.4-4.4-.8-6.6-.8-12,0-19.3,8.6-19.3,19.4s6.5,17.4,16.2,17.4,8.9-3,10.6-5.6c2.3,4.4,3.4,5.3,4.4,5.3,2.1,0,5-1.9,6.4-3.6v-2.5ZM55.5,302c-6.4,0-10.4,5.7-10.4,14.3s3.7,14.4,10.5,14.4,10.4-5.8,10.4-14.4-3.7-14.3-10.5-14.3M55.1,334.7c-10.3,0-17-7.1-17-17.9s6.8-18.9,17.8-18.9,17,6.9,17,17.8-6.9,18.9-17.8,18.9M318.4,316.3c0,8.6-3.9,14.4-10.4,14.4s-10.5-5.8-10.5-14.4,4-14.3,10.4-14.3,10.5,5.7,10.5,14.3M325.3,315.8c0-10.9-6.7-17.8-17-17.8s-17.8,8.7-17.8,18.9,6.7,17.9,17,17.9,17.8-8.8,17.8-18.9"/>
  <path class="st0" d="M661.4,106.1h28.9l15.2-15.2,15.2,15.2h28.9l-44.1-44.1-44.1,44.1ZM806.8,105.4l-.7.7h-27.5l-73.1-73-73.1,73h-27.5l-.7-.7L705.5,4.1l101.3,101.3ZM579.9,4.1h-21.7v102h21.7V4.1ZM537.8,106.1h-21.7V4.1h21.7v102ZM163.7,4.1l-28.9,28.9-28.9-28.9L4.5,105.4l.7.7h27.5L105.8,33l14.5,14.5-58.6,58.6h28.9l15.2-15.2,15.2,15.2h27.5l15.2-15.2,15.2,15.2h28.9l-58.6-58.6,14.5-14.5,73.1,73.1h27.5l.7-.7L163.7,4.1ZM120.3,76.4l14.5-14.5,14.5,14.5-14.5,14.5-14.5-14.5ZM390.5,62l44.1,44.1h-28.9l-15.2-15.2-15.2,15.2h-28.9l44.1-44.1ZM390.5,4.1l-101.3,101.3.7.7h27.5l73.1-73,73.1,73h27.5l.7-.7L390.5,4.1Z"/>
</svg>