<?xml version="1.0" encoding="UTF-8"?>
<svg id="Layer_1" xmlns="http://www.w3.org/2000/svg" version="1.1" viewBox="0 0 841.9 595.3">
  <!-- Generator: Adobe Illustrator 30.2.1, SVG Export Plug-In . SVG Version: 2.1.1 Build 1)  -->
  <defs>
    <style>
      .st0 {
        fill: #5aa7ae;
      }

      .st1 {
        fill: #035365;
      }
    </style>
  </defs>
  <g>
    <path class="st1" d="M242,336.3c4.5,0,9.2,1.4,9.5,4.8v.6c0,4.8-5.6,9.8-29.9,14.5-1.7,4.5-3.1,9-4.5,13.4,9.2,12,21.8,31.3,21.8,53.4s-.3,6.2-.8,9.2c-4.2,28.2-14.8,43.9-30.2,43.9s-2.5,0-3.9-.3c-14.8-2.5-26.3-19.6-26.3-48.4s.3-9.5.8-14.8c1.7-14.8,4.5-31,8.1-46.7-3.9-4.5-6.2-7.6-6.2-10.9s.6-3.4,1.4-5c.3-.6.8-1.1,1.4-1.7,1.7-2,4.5-3.4,8.9-3.9,4.2-15.4,9-29.1,13.4-38.3,10.9-22.9,30.5-43.6,40.6-43.6s15.1,13.7,15.1,19.3v.6s-19,25.5-33.6,57.9c3.6-.8,6.4-1.7,8.1-2.8,1.7-.8,3.9-1.1,6.2-1.1ZM217.4,423.6c0-7-2.5-16.8-6.4-26.3-2.2,11.2-3.4,19.6-3.4,25.2s1.7,9.8,4.5,9.8,1.4,0,2-.3c2.2-.6,3.4-3.9,3.4-8.4Z"/>
    <path class="st1" d="M342.4,346.1c0,9.2-3.9,20.4-6.2,28-3.9,13.4-14.3,48.9-14.3,63.2v.6c0,14.3-9,16.5-15.7,17.3h-1.1c-7,0-18.2-6.4-18.2-20.7v-1.4c.3-3.4.6-6.7,1.1-9.5h-.8c-2,0-4.2.6-7.3,2.5-2.8,2-7,3.1-11.2,3.1-11.2,0-24.3-7.6-24.3-24.1v-2.8c2.2-24.6,20.1-60.4,44.5-60.4s13.1,3.9,16.5,9.8c4.2-8.4,12.6-21.8,22.9-21.8s2.5,0,3.9.6c7.6,2.2,10.1,8.4,10.1,15.7ZM280.9,396.5c4.2,0,9.8-11.2,14.8-25.2-1.1-1.4-2.2-2.5-4.2-2.5h-.6c-7,.8-10.1,9.5-10.9,12.6-.8,2-2.5,6.4-2.5,10.1s.6,3.9,2.5,4.8c.3,0,.6.3.8.3Z"/>
    <path class="st1" d="M478.3,348.9c0,7-1.4,13.7-2.8,18.2-3.6,12-15.4,58.7-16.2,68.5-.6,8.4-1.1,22.4-12.3,22.4s-3.6-.3-6.2-1.1c-11.5-3.9-16.8-10.6-16.8-22.1s1.1-11.7,3.4-19.6c5-17.9,13.1-38,17.9-48.4-.8-1.7-2-2.8-3.1-2.8-4.2,0-8.7,13.4-11.2,20.4-2.5,7-10.1,41.1-30.8,41.1h-1.7c-10.3-.8-13.1-6.2-13.1-12.3s3.6-14.8,4.8-18.5c1.7-5.3,4.5-12,4.5-15.9s-.6-2.5-1.7-2.8h-.3c-3.6,0-8.1,12.9-10.9,21.8-2.5,8.7-6.2,30.2-22.7,30.2s-2-.3-2.8-.3c-11.2-1.7-14.5-9.8-14.5-19s1.7-14,3.6-19.9c4.8-14.3,11.7-42,14.5-48.9,2.8-6.4,6.4-11.7,14.8-11.7h1.1c7.6.6,14.8,8.4,15.4,19.9,3.6-2.5,8.4-4.5,14-4.5s3.1,0,4.5.3c7.6,1.7,10.9,7,12.3,12,7-12.6,20.1-32.4,35.2-32.4s2,0,3.1.3c14.3,2.8,17.9,14.3,17.9,25.2Z"/>
    <path class="st1" d="M513,338.3c6.4,0,12.6,4.5,12.6,12.6s-.3,2.5-.6,3.9c-1.4,5.6-3.1,11.2-4.5,16.8-2.2,8.7-3.6,17.6-5.6,26.3-1.7,8.1-3.6,16.8-3.6,24.9v3.1c0,1.4.3,3.1.3,5,0,5-.8,10.6-5.3,13.7-2,1.4-3.9,2-6.2,2-4.2,0-9-2-12.3-3.6-8.7-4.2-10.1-15.4-10.1-24.1v-2.5c.8-17.9,6.2-36.1,12.6-52.6,3.6-9.5,10.1-25.2,22.1-25.4h.6ZM519.4,295.5c7.8,0,14.3,6.4,14.3,14.3v.6c0,7.6-6.4,14.3-14,14.3h-.6c-7.8,0-14.5-6.4-14.5-14v-.6c0-7.8,6.4-14.5,14.3-14.5h.6Z"/>
    <path class="st1" d="M605.3,259.4c0,4.2-.6,9.2-2.2,15.7-6.4,23.8-29.1,109.4-32.2,136.2-2.8,25.2-6.4,39.7-19,39.7s-2,0-3.1-.3c-11.7-2.2-19.6-20.1-19.6-39.4s.6-10.6,2-15.7c6.2-23.8,28.5-110.5,33-122.2,3.9-11.2,10.9-30.5,27.1-30.5s2,0,3.1.3c5.6.6,10.9,4.5,10.9,16.2Z"/>
    <path class="st1" d="M619.8,338.3c6.4,0,12.6,4.5,12.6,12.6s-.3,2.5-.6,3.9c-1.4,5.6-3.1,11.2-4.5,16.8-2.2,8.7-3.6,17.6-5.6,26.3-1.7,8.1-3.6,16.8-3.6,24.9v3.1c0,1.4.3,3.1.3,5,0,5-.8,10.6-5.3,13.7-2,1.4-3.9,2-6.2,2-4.2,0-9-2-12.3-3.6-8.7-4.2-10.1-15.4-10.1-24.1v-2.5c.8-17.9,6.2-36.1,12.6-52.6,3.6-9.5,10.1-25.2,22.1-25.4h.6ZM626.2,295.5c7.8,0,14.3,6.4,14.3,14.3v.6c0,7.6-6.4,14.3-14,14.3h-.6c-7.8,0-14.5-6.4-14.5-14v-.6c0-7.8,6.4-14.5,14.3-14.5h.6Z"/>
    <path class="st1" d="M712.4,392.3c2.5,0,4.5.8,4.5,3.1s-.8,3.4-3.1,5.9c-7.3,8.9-21.5,28-46.1,28s-30.5-18.5-31.3-30.2v-3.4c0-14.5,7-51.2,46.1-56.2,1.1,0,2-.3,3.1-.3,10.1,0,19,6.7,20.4,20.4,0,1.1.3,2.2.3,3.4,0,13.4-8.1,29.9-34.4,30.5,2.5,5.9,7,7.8,12.3,7.8,9,0,19.9-6.2,22.9-7.8,1.7-.8,3.6-1.1,5.3-1.1ZM679.9,364.6c-3.9,0-9.8,3.6-10.3,14.8.8.3,1.7.3,2.8.3,2.5,0,5.3-.8,8.1-3.4,2.8-2.5,4.2-4.5,4.2-6.7s-.3-2-.8-3.1c-.6-1.1-2-2-3.9-2Z"/>
    <path class="st1" d="M778.1,356.2c0,3.4-1.1,5.6-2,7-1.1,1.7-4.2,4.8-7.3,4.8s-3.1-.8-4.5-2.8c-3.1-4.5-4.2-6.4-5.6-6.4s-.8.3-1.4.6c-1.1.6-1.7,2-1.7,3.9s.6,4.2,1.4,6.7c1.4,3.6,10.1,22.1,10.1,36.9s-.6,7.6-2.2,10.6c-7.6,13.7-16.5,21.5-30.8,21.5s-21.8-11.5-21.8-25.4.6-6.4,1.7-9.8c4.5-12,9.8-14,13.4-14s3.1.3,3.6.6c2,.6,6.2,10.1,8.4,10.1h.3c.3-.3.6-.8.6-1.1,0-2.8-4.2-8.7-5.3-11.2-1.7-3.1-9.2-17.3-9.2-30.5s14-20.4,19.3-21.8c3.6-1.1,8.1-2.2,12.3-2.2s11.5,2.2,15.9,9c3.6,5.9,4.8,10.3,4.8,13.7Z"/>
  </g>
  <g>
    <path class="st1" d="M108.8,225.7c5.2,0,9.8,1.4,9.8,6.5,0,10.3-9.2,24.9-30.5,25.5h-2.1c-16.6,0-24.4-6.8-24.4-19.7s.3-4.9.9-7.7c3.7-18.5,15.7-95.9,39.1-95.9h.7c3.7.2,8.2,3.8,8.2,13.1s-.9,8.9-3,15.2c-7.1,20.7-14.5,49.7-15.9,54.6-.7,2.4-1.6,5.4-1.6,7.8s.5,3.7,2.4,3.7,1-.2,1.6-.3c3-1,9.2-2.6,14.8-2.6Z"/>
    <path class="st1" d="M138.6,172.8c4,0,7.8,2.8,7.8,7.8s-.2,1.6-.3,2.4c-.9,3.5-1.9,7-2.8,10.5-1.4,5.4-2.3,11-3.5,16.4-1,5.1-2.3,10.5-2.3,15.5v1.9c0,.9.2,1.9.2,3.1,0,3.1-.5,6.6-3.3,8.5-1.2.9-2.4,1.2-3.8,1.2-2.6,0-5.6-1.2-7.7-2.3-5.4-2.6-6.3-9.6-6.3-15v-1.6c.5-11.2,3.8-22.5,7.8-32.8,2.3-5.9,6.3-15.7,13.8-15.9h.3ZM142.6,146.1c4.9,0,8.9,4,8.9,8.9v.3c0,4.7-4,8.9-8.7,8.9h-.3c-4.9,0-9.1-4-9.1-8.7v-.4c0-4.9,4-9.1,8.9-9.1h.3Z"/>
    <path class="st1" d="M187.2,184c0,2.1-.7,3.5-1.2,4.4-.7,1-2.6,3-4.5,3s-1.9-.5-2.8-1.7c-1.9-2.8-2.6-4-3.5-4s-.5.2-.9.3c-.7.4-1,1.2-1,2.4s.4,2.6.9,4.2c.9,2.3,6.3,13.8,6.3,23s-.4,4.7-1.4,6.6c-4.7,8.5-10.3,13.4-19.2,13.4s-13.6-7.1-13.6-15.9.3-4,1-6.1c2.8-7.5,6.1-8.7,8.4-8.7s1.9.2,2.3.3c1.2.3,3.8,6.3,5.2,6.3h.2c.2-.2.4-.5.4-.7,0-1.7-2.6-5.4-3.3-7-1-1.9-5.8-10.8-5.8-19s8.7-12.7,12-13.6c2.3-.7,5.1-1.4,7.7-1.4s7.1,1.4,9.9,5.6c2.3,3.7,3,6.5,3,8.5Z"/>
    <path class="st1" d="M240.4,141.8c14.6,0,30.7,1.2,30.7,8v.2c-.5,10.5-3.3,14.6-18.3,14.6h-1.9c-6.6,0-14.6-.2-22.8-.3-5.6,21.4-12.2,48.8-13.6,60-1.7,15.3-4,24.6-11.5,24.6s-1.4,0-2.1-.2c-7.3-1.4-12.2-12.4-12.2-24.2s.3-6.8,1.2-10.1c2.3-8.7,8.2-31.6,13.1-50.2-2.6.2-5.1.3-6.8.5-1.6.2-3,.3-4.4.3-6.8,0-9.8-3.5-9.8-11.2v-.5c.2-7.8,10.3-10.3,26.9-11,.7-1.9,1-3.3,1.4-4.2,2.4-7,7-19,17.1-19s1.2.2,1.7.2c3.5.5,7,3,7,9.9s-.5,5.9-1.6,9.9c-.2.7-.4,1.6-.7,2.6h6.6Z"/>
    <path class="st1" d="M275.8,206.5c1.6,0,2.8.5,2.8,1.9s-.5,2.1-1.9,3.7c-4.5,5.6-13.4,17.4-28.8,17.4s-19-11.5-19.5-18.8v-2.1c0-9.1,4.4-31.9,28.8-35,.7,0,1.2-.2,1.9-.2,6.3,0,11.9,4.2,12.7,12.7,0,.7.2,1.4.2,2.1,0,8.4-5.1,18.7-21.4,19,1.6,3.7,4.4,4.9,7.7,4.9,5.6,0,12.4-3.8,14.3-4.9,1-.5,2.3-.7,3.3-.7ZM255.6,189.2c-2.4,0-6.1,2.3-6.5,9.2.5.2,1,.2,1.7.2,1.6,0,3.3-.5,5.1-2.1,1.7-1.6,2.6-2.8,2.6-4.2s-.2-1.2-.5-1.9c-.3-.7-1.2-1.2-2.4-1.2Z"/>
    <path class="st1" d="M334.9,177.4c0,11.7-5.6,28.2-7,33.7-2.1,7.5-4.4,22-4.4,27.6v2.6c0,4.5-1.6,10.6-9.1,10.6h-.3c-6.6-.2-12.7-4-12.7-15.9s.7-8.9,2.3-14.8c4.9-18.1,10.6-25.5,10.6-28.8s-.4-1.4-1.4-1.9c-4.2,7.7-10.3,19.4-11.9,23.2-2.4,5.9-3.3,14.5-13.3,14.5h-.5c-6.5-.2-8.9-6.6-8.9-14.6s1-11.5,3-16.9c4.7-13.6,7.5-27.4,16.9-27.4h.3c3.1,0,6.6,3.1,7,10.8,4.4-6.1,12.4-15,20.6-15s1.9.2,2.8.4c4.5,1.2,5.9,5.9,5.9,12Z"/>
    <path class="st1" d="M356.9,172.8c4,0,7.8,2.8,7.8,7.8s-.2,1.6-.3,2.4c-.9,3.5-1.9,7-2.8,10.5-1.4,5.4-2.3,11-3.5,16.4-1,5.1-2.3,10.5-2.3,15.5v1.9c0,.9.2,1.9.2,3.1,0,3.1-.5,6.6-3.3,8.5-1.2.9-2.4,1.2-3.8,1.2-2.6,0-5.6-1.2-7.7-2.3-5.4-2.6-6.3-9.6-6.3-15v-1.6c.5-11.2,3.8-22.5,7.8-32.8,2.3-5.9,6.3-15.7,13.8-15.9h.3ZM360.9,146.1c4.9,0,8.9,4,8.9,8.9v.3c0,4.7-4,8.9-8.7,8.9h-.3c-4.9,0-9.1-4-9.1-8.7v-.4c0-4.9,4-9.1,8.9-9.1h.3Z"/>
    <path class="st1" d="M423.7,177.4c0,11.7-5.6,28.2-7,33.7-2.1,7.5-4.4,22-4.4,27.6v2.6c0,4.5-1.6,10.6-9.1,10.6h-.4c-6.6-.2-12.7-4-12.7-15.9s.7-8.9,2.3-14.8c4.9-18.1,10.6-25.5,10.6-28.8s-.4-1.4-1.4-1.9c-4.2,7.7-10.3,19.4-11.9,23.2-2.4,5.9-3.3,14.5-13.3,14.5h-.5c-6.5-.2-8.9-6.6-8.9-14.6s1-11.5,3-16.9c4.7-13.6,7.5-27.4,16.9-27.4h.3c3.1,0,6.6,3.1,7,10.8,4.4-6.1,12.4-15,20.6-15s1.9.2,2.8.4c4.5,1.2,5.9,5.9,5.9,12Z"/>
    <path class="st1" d="M488.6,174.9c0,1.9-.5,4.4-1.4,7.5-3.1,10.3-14.1,53.4-18.5,67.8-4.2,13.9-13.4,34.2-32.3,34.2h-1.6c-16.4-1-20.7-12.7-20.7-20.9s.2-3.5.5-4.7c1.7-6.3,5.1-12.2,11.5-12.2s1.9,0,3,.3c5.8,1.4,7.5,4.9,7.5,8s-.5,3.1-1,4.4c-.3.7-.5,1.4-.5,2.1,0,1.7,1,3.5,2.3,3.5s2.4-1.2,3.8-4.2c3.5-8,11.5-30.7,13.4-40.6-4.5,4.5-10.1,8.7-16,8.7s-1.2-.2-1.7-.2c-8.4-1.2-11.3-8.4-11.3-16.7s1.6-12.9,4-18.5c5.1-11.7,12.7-20.9,22.7-20.9s2.4.2,3.8.5c3.8.9,6.5,3,8.5,5.2,4.5-6.3,9.6-11.7,13.9-11.7s.9,0,1.2.2c6.3,1.6,8.9,3.7,8.9,8.2ZM445.8,204.6c0,.9.2,1.6.9,1.6,1.2,0,3.7-2.6,7.3-10.1.5-1,1-2.1,1.7-3.3-1.9,0-4.2.9-6.6,4.2-2.3,2.8-3.3,5.9-3.3,7.7Z"/>
    <path class="st1" d="M588.6,141.8c14.6,0,30.7,1.2,30.7,8v.2c-.5,10.5-3.3,14.6-18.3,14.6h-1.9c-6.6,0-14.6-.2-22.8-.3-5.6,21.4-12.2,48.8-13.6,60-1.7,15.3-4,24.6-11.5,24.6s-1.4,0-2.1-.2c-7.3-1.4-12.2-12.4-12.2-24.2s.3-6.8,1.2-10.1c2.3-8.7,8.2-31.6,13.1-50.2-2.6.2-5.1.3-6.8.5-1.6.2-3,.3-4.4.3-6.8,0-9.8-3.5-9.8-11.2v-.5c.2-7.8,10.3-10.3,26.9-11,.7-1.9,1-3.3,1.4-4.2,2.4-7,7-19,17.1-19s1.2.2,1.7.2c3.5.5,7,3,7,9.9s-.5,5.9-1.6,9.9c-.2.7-.4,1.6-.7,2.6h6.6Z"/>
    <path class="st1" d="M620.5,193c0,4.2-.7,8.9-2.6,14.6-6.1,18.5-15,21.8-21.6,21.8s-4.7-.5-6.3-.9c-4.2-.9-13.8-6.3-13.8-19.2s.3-6.3,1.6-9.9c5.2-17.4,13.8-22,19.4-22s1.7.2,2.4.4c2.8.7,4.2,3.1,4.2,6.1s-1.2,5.9-3.5,9.1c-3.3,4.4-4.5,8.4-4.5,10.6s.3,1.9.9,2.3h.2c2.1,0,8.2-8.9,8.2-15.5v-.2c0-7-1-10.3-4.5-13.3-.7-.7-1-1.2-1-1.7,0-1.7,3.5-2.8,6.5-2.8s1,.2,1.6.2c4,.5,13.1,6.1,13.1,20.4Z"/>
  </g>
  <path class="st0" d="M687.7,147.2c-10.7-1.3-18.6,5-19.9,15.5-1.1,9.2.8,20.7,10,25.1,8.7,4.1,19.9,1.4,24.9-7,3.7-6.3,3.9-16.1-1.3-21.7-4.8-5.3-18.2,1.4-12.9,7.2,2,2.2,2.5,5.2,2.1,8.1s-.5,2.8-1.5,3.8c-.3.3-.9.4.4,0-.7.2-1.8,0-2.4-.4-4.2-2.8-4.9-7.8-4.8-12.7,0-1.8.3-3.5.5-5.3,0-.6.5-1.2.6-1.8,0,0-3.5.3,0,.7,7.7.9,14-10.3,4.3-11.5h0Z"/>
  <path class="st0" d="M681.4,202.4c7.9,12.6,6.5,27.3,6.5,41.8,0,7.4,15,6.5,15-1.1,0-15.6,1.2-31.1-7.3-44.7-3.8-6-18.3-2.6-14.2,4h0Z"/>
  <path class="st0" d="M665.3,224.3c7.5-2.9,15.4-4.9,23.5-4.8,8.8.2,14.4,5.3,20.4,11,5.1,4.9,17.2-3,10.9-9-7.4-7.1-14.8-12.4-25.3-13.4-11-1-22.4,1.4-32.6,5.3-8.6,3.3-5.7,14.2,3.1,10.8h0Z"/>
  <path class="st0" d="M696,280.6c-1-6.2-1-12.7,0-18.9.3-2,2.2-5,1.9-6.8,1.2-1.8.3-2.5-2.5-2.1,1,1.4,1.9,2.9,2.7,4.4,6,10.8,8.5,22.6,8.3,34.9-.1,7.1,14.6,9.3,14.7,1.2.2-10.5-1.6-20.9-5.5-30.6-3-7.4-7.5-18.3-15.5-21.3-19.9-7.5-20.7,26.5-18.8,37.9,1.2,7,16,9,14.7,1.2h0Z"/>
  <path class="st0" d="M747.6,172.3c-.7.2-.1-.7.6.9.7,1.6,1.1,3.2,1.4,4.8.4,2.4,1.6,9.9-1.4,11.1-3.9,1.5-4.6-8.3-3.3-10.1,5.4-7.6-8.3-10.3-12.5-4.4-4.1,5.8-3.8,14.5.4,20.3,5.6,7.6,16.5,7.4,23.8,2.6,8.3-5.5,9.1-15.9,7.1-24.9-2.2-9.8-10-13.4-19.5-11-3.1.8-6.5,4.2-5.5,7.6,1.1,3.7,5.8,3.9,8.8,3.1h0Z"/>
  <path class="st0" d="M741.7,208.9c-6,13.3-3,27.1-1.2,41.2.9,7.5,15.9,6.3,15-1.1-1.6-13-4.7-25.9.9-38.1,3.2-7-11.7-8.4-14.6-1.9h0Z"/>
  <path class="st0" d="M775.6,217.9c-10.2-2.4-21.4-3.2-31.7-.4-9.4,2.5-15.7,8.8-21.6,16.2-5.8,7.3,7.9,10.4,12.4,4.8,4.6-5.8,8.7-9.9,16.4-10.8,6.7-.8,13.4.1,19.9,1.7,7.6,1.8,14.1-9.2,4.6-11.4h0Z"/>
  <path class="st0" d="M748.3,283.2c-.8-5.6-.6-11.4.5-16.9.3-1.8,2.1-4.5,2-6.1,1.3-1.9.2-2.5-3.3-1.6,1,1.4,1.8,2.9,2.6,4.4,5,9.7,7,20.2,6.5,31.1-.3,7.1,14.4,9.3,14.7,1.2.4-9.5-1-19-4.4-27.9-2.7-7-6.8-17.1-14.4-19.9-18.5-7-20.5,23.2-18.9,34.5,1,7.1,15.8,9,14.7,1.2h0Z"/>
</svg>