<?xml version="1.0" encoding="UTF-8"?>
<svg id="Layer_2" data-name="Layer 2" xmlns="http://www.w3.org/2000/svg" viewBox="0 0 463.66 577">
  <defs>
    <style>
      .cls-1 {
        fill: #035365;
      }
    </style>
  </defs>
  <g id="Layer_1-2" data-name="Layer 1">
    <g>
      <path class="cls-1" d="M115.32.64C75.08-4.25,45.37,19.44,40.48,58.92c-4.14,34.6,3.01,77.84,37.6,94.39,32.72,15.42,74.83,5.26,93.64-26.32,13.91-23.69,14.67-60.54-4.89-81.6-18.05-19.93-68.44,5.26-48.51,27.08,7.52,8.27,9.4,19.55,7.9,30.46s-1.88,10.53-5.64,14.29c-1.13,1.13-3.38,1.5,1.5,0-2.63.75-6.77,0-9.03-1.5-15.79-10.53-18.43-29.33-18.05-47.76,0-6.77,1.13-13.16,1.88-19.93,0-2.26,1.88-4.51,2.26-6.77,0,0-13.16,1.13,0,2.63,28.96,3.38,52.65-38.73,16.17-43.25h0Z"/>
      <path class="cls-1" d="M91.62,208.21c29.71,47.38,24.44,102.66,24.44,157.19,0,27.83,56.41,24.44,56.41-4.14,0-58.66,4.51-116.95-27.45-168.09-14.29-22.56-68.82-9.78-53.4,15.04h0Z"/>
      <path class="cls-1" d="M31.08,290.57c28.2-10.91,57.91-18.43,88.37-18.05,33.09.75,54.15,19.93,76.71,41.36,19.18,18.43,64.68-11.28,40.99-33.84-27.83-26.7-55.65-46.63-95.14-50.39-41.36-3.76-84.23,5.26-122.59,19.93-32.34,12.41-21.43,53.4,11.66,40.61h0v.38Z"/>
      <path class="cls-1" d="M146.53,502.28c-3.76-23.31-3.76-47.76,0-71.07,1.13-7.52,8.27-18.8,7.14-25.57,4.51-6.77,1.13-9.4-9.4-7.9,3.76,5.26,7.14,10.91,10.15,16.55,22.56,40.61,31.96,84.99,31.21,131.24-.38,26.7,54.9,34.97,55.28,4.51.75-39.48-6.02-78.59-20.68-115.07-11.28-27.83-28.2-68.82-58.29-80.1-74.83-28.2-77.84,99.65-70.7,142.52,4.51,26.32,60.17,33.84,55.28,4.51h0v.38Z"/>
      <path class="cls-1" d="M340.57,95.02c-2.63.75-.38-2.63,2.26,3.38,2.63,6.02,4.14,12.03,5.26,18.05,1.5,9.03,6.02,37.23-5.26,41.74-14.67,5.64-17.3-31.21-12.41-37.98,20.31-28.58-31.21-38.73-47.01-16.55-15.42,21.81-14.29,54.53,1.5,76.34,21.06,28.58,62.05,27.83,89.5,9.78,31.21-20.68,34.22-59.79,26.7-93.64-8.27-36.85-37.6-50.39-73.33-41.36-11.66,3.01-24.44,15.79-20.68,28.58,4.14,13.91,21.81,14.67,33.09,11.66h.38Z"/>
      <path class="cls-1" d="M318.38,232.65c-22.56,50.01-11.28,101.91-4.51,154.93,3.38,28.2,59.79,23.69,56.41-4.14-6.02-48.89-17.67-97.4,3.38-143.27,12.03-26.32-44-31.59-54.9-7.14h0l-.38-.38Z"/>
      <path class="cls-1" d="M445.86,266.5c-38.36-9.03-80.47-12.03-119.21-1.5-35.35,9.4-59.04,33.09-81.23,60.92-21.81,27.45,29.71,39.11,46.63,18.05,17.3-21.81,32.72-37.23,61.67-40.61,25.2-3.01,50.39.38,74.83,6.39,28.58,6.77,53.02-34.6,17.3-42.87h0v-.38Z"/>
      <path class="cls-1" d="M343.2,512.06c-3.01-21.06-2.26-42.87,1.88-63.55,1.13-6.77,7.9-16.92,7.52-22.94,4.89-7.14.75-9.4-12.41-6.02,3.76,5.26,6.77,10.91,9.78,16.55,18.8,36.48,26.32,75.96,24.44,116.95-1.13,26.7,54.15,34.97,55.28,4.51,1.5-35.72-3.76-71.45-16.55-104.92-10.15-26.32-25.57-64.3-54.15-74.83-69.57-26.32-77.09,87.24-71.07,129.74,3.76,26.7,59.41,33.84,55.28,4.51h0Z"/>
    </g>
  </g>
</svg>