<?xml version="1.0" encoding="UTF-8"?>
<svg id="Layer_2" data-name="Layer 2" xmlns="http://www.w3.org/2000/svg" viewBox="0 0 804.19 330.61">
  <defs>
    <style>
      .cls-1 {
        fill: #fff;
        stroke-width: 0px;
      }
    </style>
  </defs>
  <g id="Layer_1-2" data-name="Layer 1">
    <path class="cls-1" d="m26.01,194.91l-10.38-30.14-2.03,28.63c2.11.61,4.59,1.43,6.01,2.11v5.41H0v-5.41c1.2-.68,3.38-1.5,5.41-2.11l2.63-34.43c-2.03-.6-4.21-1.43-5.41-2.1v-5.42h22.1l9.84,29.84,9.47-29.84h21.8v5.42c-1.2.67-3.38,1.5-5.41,2.1l2.63,34.43c2.03.61,4.21,1.43,5.41,2.11v5.41h-24.51v-5.41c1.43-.68,3.91-1.5,6.02-2.11l-2.26-28.86-8.79,27.21-4.29,3.16h-8.64Zm53.44-36.45h16.77c2.03-.38,3.23-.98,4.43-1.81v-5.86h-16.76c-2.03.37-3.23.98-4.44,1.8v5.86Zm39.99.52c1.58.3,3.6.68,5.11.83,2.48-.07,5.41-.38,7.82-.83.15-1.13.3-2.7.3-4.73s-.15-3.46-.3-4.59c-1.58-.3-3.61-.67-5.11-.82-2.48.08-5.41.38-7.82.82-.15,1.13-.3,2.63-.3,4.59s.15,3.61.3,4.73m-3.61,41.95h21.35v-5.41c-1.13-.68-2.93-1.5-4.66-2.03v-22.25c.15-3,.15-4.13.15-6.31-1.28-.3-3.68-.68-5.19-.83-4.21.3-9.32,2.03-11.5,3.01v4.88c1.2.68,3.46,1.58,4.81,1.96v19.54c-1.88.53-3.84,1.35-4.96,2.03v5.41Zm-21.35-15.41c-3.23-.37-7.14-.3-9.54.53-.3.68-.6,2.03-.6,3.23,0,3.08,1.8,5.04,5.64,5.04,2.11,0,3.68-.98,4.51-1.96v-6.84Zm16.16,11.88c-1.8,2.33-4.66,4.36-7.52,4.36-2.1,0-5.34-.38-6.77-5.72-1.8,3.01-5.41,6.09-11.35,6.09-8.42,0-12.78-4.59-12.78-11.05,0-9.7,9.09-11.73,22.55-11.2v-2.48c0-4.59-1.13-7.59-5.56-7.59-.98,0-2.48.15-3,.38-.83,2.18-1.66,4.29-2.79,6.77-3.83-.6-7.21-1.5-8.94-2.18-.23-1.66-.38-5.41-.07-7.29,2.86-1.73,8.49-3.39,16.76-3.39,10.52,0,15.18,3.46,15.18,13.45,0,2.63-.38,9.02-.38,13.08,1.13.3,3.61,1.13,4.66,1.5v5.26Zm52.76-5.04c-.83.98-2.41,1.96-4.51,1.96-3.83,0-5.64-1.96-5.64-5.04,0-1.2.3-2.56.6-3.23,2.41-.83,6.32-.9,9.54-.53v6.84Zm16.16-.22c-1.05-.38-3.53-1.2-4.66-1.5,0-4.06.37-10.45.37-13.08,0-10-4.66-13.45-15.18-13.45-8.27,0-13.91,1.65-16.77,3.39-.3,1.88-.15,5.64.07,7.29,1.73.68,5.11,1.58,8.95,2.18,1.13-2.48,1.95-4.59,2.78-6.77.52-.23,2.03-.38,3-.38,4.43,0,5.56,3.01,5.56,7.59v2.48c-13.45-.52-22.55,1.5-22.55,11.2,0,6.46,4.36,11.05,12.78,11.05,5.94,0,9.54-3.08,11.35-6.09,1.43,5.34,4.66,5.72,6.77,5.72,2.86,0,5.71-2.03,7.51-4.36v-5.26ZM13.98,237.62h25.41v-17.51c-2.26-.38-5.11-.91-6.92-1.5v-2.7h20.45c0,2.7-1.05,3.3-6.77,4.28v40.89c5.72.98,6.77,1.58,6.77,4.28h-20.45v-2.7c1.8-.6,4.66-1.13,6.92-1.5v-19.31H13.98v19.31c2.26.38,5.11.91,6.91,1.5v2.7H.45c0-2.7,1.05-3.3,6.77-4.28v-40.89c-5.72-.98-6.77-1.58-6.77-4.28h20.44v2.7c-1.8.6-4.66,1.13-6.91,1.5v17.51Zm125.61-26c-.68-.38-2.03-.91-3.76-.91-2.63,0-6.84,1.35-8.79,2.41v1.95c1.28.68,3.68,1.43,6.09,1.8v44.27c-5.11.98-6.16,1.58-6.16,4.21h18.64v-2.7c-1.5-.52-4.21-1.13-6.02-1.35v-49.68Zm20.52,22.92c-.08,7.52-.15,16.46-.15,20.15,0,4.06,2.03,6.54,5.79,6.54,2.78,0,5.49-1.43,6.99-2.33.38.23,1.58,2.03,1.73,2.55-1.43,1.96-5.86,4.74-10.6,4.74-6.92,0-10.37-3.76-10.37-10.75,0-5.56.15-15.34.15-20.9-1.28-.15-3.46-.52-5.34-1.13v-2.7c1.2-.15,3.38-.3,5.34-.38.82-8.04,2.63-8.42,6.69-8.42,0,0-.15,3.61-.23,8.42h14.05v2.63c-.9,1.2-2.18,1.58-6.16,1.58h-7.89Zm53.22,7.89c0-6.99-3.83-13-12.02-13-5.64,0-8.95,2.86-11.13,6.09v-23.9c-.68-.38-2.03-.91-3.76-.91-2.63,0-6.84,1.35-8.79,2.41v1.95c1.28.68,3.68,1.43,6.09,1.8v44.27c-5.11.98-6.16,1.58-6.16,4.21h18.64v-2.7c-1.58-.52-3.83-1.05-6.01-1.43v-21.35c1.35-2.71,4.29-5.56,8.42-5.56,5.19,0,8.27,3.3,8.27,9.92v16.91c-5.11.98-6.16,1.58-6.16,4.21h18.64v-2.7c-1.58-.52-3.84-1.05-6.02-1.43v-18.79Zm-133.87.52h-16.76c.45-4.81,2.86-9.62,8.64-9.62s8.12,4.06,8.12,9.62m6.24-.75c0-6.69-3.83-12.78-13.45-12.78s-16.69,6.99-16.69,19.4c0,8.94,5.71,17.36,16.39,17.36,6.84,0,10.75-3.16,13.08-6.39-.07-.45-1.35-1.88-1.88-2.25-2.55,2.18-5.11,3.61-8.94,3.61-8.5,0-12.1-7.36-11.8-14.43h23.07c.15-1.58.23-2.78.23-4.51m12.56,13.53c0,3.76,2.85,5.56,6.76,5.56,2.93,0,5.71-1.58,6.77-3.61l.15-7.59c-8.11-.45-13.68.23-13.68,5.64m25.48,7.29c-1.35,1.88-3.53,3.08-5.64,3.08-2.63,0-4.44-1.8-5.49-5.26-2.11,3.31-5.19,5.34-10,5.34-7.29,0-11.2-4.36-11.2-9.62,0-7,6.31-10.45,16.46-10.45,1.88,0,2.93.08,4.21.15,0,0,.07-2.63.07-3.84,0-5.86-2.55-9.17-6.99-9.17-4.14,0-6.61,4.36-8.5,6.84-4.21-.68-5.49-4.81-1.95-7.44,2.78-2.11,6.47-3.23,12.03-3.23,7.89,0,11.8,3.98,11.8,12.18,0,5.26-.45,11.58-.52,17.36,1.88.53,4.36,1.28,5.71,1.73v2.33Zm148.42,20.94c0,2.33,1.88,4.21,4.21,4.21s4.21-1.88,4.21-4.21-1.88-4.21-4.21-4.21-4.21,1.88-4.21,4.21m-242.53,17.48v2.26c-.45.9-1.35,2.11-3.98,2.11h-11.65v19.77c2.78.38,5.64.9,7.67,1.5v2.71H.45c0-2.71,1.05-3.31,6.77-4.29v-40.81c-5.57-.98-6.54-1.58-6.54-4.36h34.8c.37.98.45,2.33.45,3.39,0,2.56-.98,6.24-1.73,8.12h-2.25c-1.13-2.48-1.81-4.59-2.41-7.44h-15.56v17.06h15.63Zm77.5-6.61c-.67-.37-1.73-.9-3.38-.9-3.38,0-7.14,1.35-9.09,2.4v1.95c1.28.68,3.53,1.43,6.02,1.8l-.23,20.07c-1.88,3.46-4.81,5.49-8.42,5.49-4.74,0-7.59-3.31-7.59-9.25,0-11.35.15-17.59.23-21.58-.68-.37-1.73-.9-3.38-.9-2.63,0-6.46,1.35-8.42,2.4v1.95c1.27.68,3.53,1.35,5.34,1.73-.08,3.38-.23,13.3-.23,17.51,0,8.5,4.29,13.08,11.65,13.08,6.69,0,10-4.06,11.72-6.54,1.35,4.14,2.71,6.32,3.84,6.32,2.11,0,4.96-1.73,6.54-3.61v-2.48c-.98-.45-2.78-1.13-4.82-1.81.15-6.16.08-14.73.23-27.66m45.4,12.03c0-7.14-3.91-13-12.1-13-5.64,0-8.95,2.78-11.13,6.16v-5.19c-.67-.37-1.73-.9-3.3-.9-2.71,0-6.54,1.35-8.5,2.4v1.95c1.28.68,3.54,1.35,5.41,1.73v25.56c-5.11.98-6.16,1.58-6.16,4.21h18.64v-2.71c-1.58-.53-3.83-1.05-6.02-1.43v-21.35c1.36-2.7,4.14-5.56,8.42-5.56,5.19,0,8.27,3.31,8.27,9.93v16.91c-5.11.98-6.17,1.58-6.17,4.21h18.64v-2.71c-1.58-.53-3.83-1.05-6.01-1.43v-18.79Zm103.92-7.89c3.98,0,5.26-.38,6.16-1.58v-2.63h-14.06c.07-4.81.23-8.42.23-8.42-4.06,0-5.86.37-6.69,8.42-1.95.07-4.14.23-5.34.38v2.71c1.88.6,4.06.97,5.34,1.12,0,5.57-.15,15.34-.15,20.9,0,7,3.46,10.75,10.37,10.75,4.74,0,9.17-2.78,10.6-4.73-.15-.53-1.36-2.33-1.73-2.56-1.5.91-4.21,2.33-6.99,2.33-3.76,0-5.79-2.48-5.79-6.54,0-3.68.07-12.63.15-20.15h7.89Zm23.3-4.14c-.68-.37-1.81-.9-3.38-.9-2.7,0-6.54,1.35-8.49,2.4v1.95c1.28.68,3.53,1.35,5.41,1.73v25.56c-5.19.98-6.24,1.58-6.24,4.21h18.64v-2.71c-1.58-.53-3.84-1.05-5.94-1.43v-30.82Zm81.1,30.82c2.18.37,4.44.9,6.02,1.43v2.71h-18.64c0-2.63,1.05-3.24,6.16-4.21v-16.91c0-6.61-3.08-9.93-8.27-9.93-4.28,0-7.06,2.86-8.41,5.56v21.35c2.18.37,4.43.9,6.01,1.43v2.71h-18.64c0-2.63,1.05-3.24,6.16-4.21v-25.56c-1.88-.38-4.14-1.05-5.41-1.73v-1.95c1.95-1.05,5.79-2.4,8.49-2.4,1.58,0,2.63.52,3.31.9v5.19c2.18-3.38,5.49-6.16,11.12-6.16,8.2,0,12.1,5.86,12.1,13v18.79Zm-150.24-5.49c0,3.76,2.86,5.57,6.77,5.57,2.93,0,5.71-1.58,6.77-3.61l.15-7.59c-8.12-.45-13.68.23-13.68,5.64m25.48,7.29c-1.35,1.88-3.53,3.08-5.64,3.08-2.63,0-4.44-1.8-5.49-5.26-2.1,3.31-5.18,5.34-10,5.34-7.29,0-11.2-4.36-11.2-9.62,0-6.99,6.31-10.45,16.46-10.45,1.88,0,2.93.07,4.21.15,0,0,.07-2.63.07-3.83,0-5.86-2.56-9.17-6.99-9.17-4.14,0-6.61,4.36-8.5,6.84-4.21-.68-5.48-4.81-1.95-7.44,2.78-2.11,6.46-3.23,12.03-3.23,7.89,0,11.8,3.98,11.8,12.18,0,5.26-.45,11.57-.52,17.36,1.88.52,4.36,1.28,5.71,1.73v2.33Zm-48.77-5.49c-1.5,2.03-4.28,3.53-7.14,3.53-7.74,0-11.88-6.01-11.88-13.61s4.14-13.91,11.8-13.91c2.93,0,5.86.9,7.21,1.73v22.25Zm11.72,2.33c-1.5-.68-3.38-1.28-5.26-1.88l.08-46.38c-.68-.38-2.03-.91-3.76-.91-2.86,0-6.99,1.36-9.02,2.41v1.95c1.35.68,3.76,1.43,6.31,1.8l-.07,13.3c-1.65-.45-4.28-.75-6.54-.75-11.95,0-19.31,8.64-19.31,19.39,0,10.07,6.54,17.36,16.23,17.36,6.02,0,8.95-3.01,10.6-5.56,2.25,4.36,3.38,5.34,4.36,5.34,2.11,0,5.04-1.88,6.39-3.61v-2.48Zm-146.13-26.38c-6.39,0-10.37,5.71-10.37,14.28s3.68,14.36,10.52,14.36c6.46,0,10.37-5.79,10.37-14.36s-3.68-14.28-10.52-14.28m-.38,32.7c-10.3,0-16.99-7.07-16.99-17.89,0-10.15,6.84-18.87,17.82-18.87,10.29,0,16.99,6.92,16.99,17.81,0,10.15-6.92,18.94-17.82,18.94m263.27-18.42c0,8.57-3.91,14.36-10.37,14.36-6.84,0-10.52-5.79-10.52-14.36s3.98-14.28,10.37-14.28c6.84,0,10.52,5.71,10.52,14.28m6.91-.52c0-10.9-6.69-17.81-16.99-17.81-10.97,0-17.81,8.72-17.81,18.87,0,10.82,6.69,17.89,16.99,17.89,10.9,0,17.81-8.79,17.81-18.94"/>
    <path class="cls-1" d="m658.77,102h28.94l15.19-15.18,15.19,15.18h28.94l-44.13-44.13-44.13,44.13Zm145.42-.71l-.7.71h-27.53l-73.05-73.05-73.05,73.05h-27.51l-.71-.71L702.9,0l101.29,101.28ZM577.33,0h-21.67v102h21.67V0Zm-42.13,101.99h-21.67V0h21.67v102ZM161.08,0l-28.93,28.93L103.22,0,1.94,101.29l.72.71h27.52L103.22,28.95l14.46,14.46-58.59,58.59h28.94l15.19-15.19,15.18,15.19h27.49l15.18-15.19,15.19,15.19h28.94l-58.59-58.59,14.46-14.46,73.05,73.05h27.53l.71-.71L161.08,0Zm-43.39,72.34l14.46-14.46,14.46,14.46-14.46,14.46-14.46-14.46Zm270.25-14.47l44.13,44.13h-28.94l-15.19-15.18-15.18,15.18h-28.94l44.13-44.13Zm0-57.87l-101.28,101.28.71.71h27.52l73.05-73.05,73.05,73.05h27.53l.7-.71L387.95,0Z"/>
  </g>
</svg>